<svg width="139" height="15" viewBox="0 0 139 15" fill="none" xmlns="http://www.w3.org/2000/svg">
<path d="M7.8418 8.77051H2.7793V14H0.142578V1.20312H8.47461V3.33887H2.7793V6.64355H7.8418V8.77051ZM12.5176 14H9.96875V4.49023H12.5176V14ZM9.81934 2.0293C9.81934 1.64844 9.94531 1.33496 10.1973 1.08887C10.4551 0.842773 10.8037 0.719727 11.2432 0.719727C11.6768 0.719727 12.0225 0.842773 12.2803 1.08887C12.5381 1.33496 12.667 1.64844 12.667 2.0293C12.667 2.41602 12.5352 2.73242 12.2715 2.97852C12.0137 3.22461 11.6709 3.34766 11.2432 3.34766C10.8154 3.34766 10.4697 3.22461 10.2061 2.97852C9.94824 2.73242 9.81934 2.41602 9.81934 2.0293ZM19.9619 6.87207C19.6162 6.8252 19.3115 6.80176 19.0479 6.80176C18.0869 6.80176 17.457 7.12695 17.1582 7.77734V14H14.6182V4.49023H17.0176L17.0879 5.62402C17.5977 4.75098 18.3037 4.31445 19.2061 4.31445C19.4873 4.31445 19.751 4.35254 19.9971 4.42871L19.9619 6.87207ZM25.3936 14.1758C23.999 14.1758 22.8623 13.748 21.9834 12.8926C21.1104 12.0371 20.6738 10.8975 20.6738 9.47363V9.22754C20.6738 8.27246 20.8584 7.41992 21.2275 6.66992C21.5967 5.91406 22.1182 5.33398 22.792 4.92969C23.4717 4.51953 24.2451 4.31445 25.1123 4.31445C26.4131 4.31445 27.4355 4.72461 28.1797 5.54492C28.9297 6.36523 29.3047 7.52832 29.3047 9.03418V10.0713H23.249C23.3311 10.6924 23.5771 11.1904 23.9873 11.5654C24.4033 11.9404 24.9277 12.1279 25.5605 12.1279C26.5391 12.1279 27.3037 11.7734 27.8545 11.0645L29.1025 12.4619C28.7217 13.001 28.2061 13.4229 27.5557 13.7275C26.9053 14.0264 26.1846 14.1758 25.3936 14.1758ZM25.1035 6.37109C24.5996 6.37109 24.1895 6.54102 23.873 6.88086C23.5625 7.2207 23.3633 7.70703 23.2754 8.33984H26.8086V8.1377C26.7969 7.5752 26.6445 7.1416 26.3516 6.83691C26.0586 6.52637 25.6426 6.37109 25.1035 6.37109ZM39.3242 9.33301C39.3242 10.8564 38.999 12.0459 38.3486 12.9014C37.6982 13.751 36.79 14.1758 35.624 14.1758C34.5928 14.1758 33.7695 13.7803 33.1543 12.9893L33.04 14H30.7549V0.5H33.2949V5.34277C33.8809 4.65723 34.6514 4.31445 35.6064 4.31445C36.7666 4.31445 37.6748 4.74219 38.3311 5.59766C38.9932 6.44727 39.3242 7.64551 39.3242 9.19238V9.33301ZM36.7842 9.14844C36.7842 8.1875 36.6318 7.4873 36.3271 7.04785C36.0225 6.60254 35.5684 6.37988 34.9648 6.37988C34.1562 6.37988 33.5996 6.71094 33.2949 7.37305V11.126C33.6055 11.7939 34.168 12.1279 34.9824 12.1279C35.8027 12.1279 36.3418 11.7236 36.5996 10.915C36.7227 10.5283 36.7842 9.93945 36.7842 9.14844ZM46.4082 14C46.291 13.7715 46.2061 13.4873 46.1533 13.1475C45.5381 13.833 44.7383 14.1758 43.7539 14.1758C42.8223 14.1758 42.0488 13.9062 41.4336 13.3672C40.8242 12.8281 40.5195 12.1484 40.5195 11.3281C40.5195 10.3203 40.8916 9.54688 41.6357 9.00781C42.3857 8.46875 43.4668 8.19629 44.8789 8.19043H46.0479V7.64551C46.0479 7.20605 45.9336 6.85449 45.7051 6.59082C45.4824 6.32715 45.1279 6.19531 44.6416 6.19531C44.2139 6.19531 43.877 6.29785 43.6309 6.50293C43.3906 6.70801 43.2705 6.98926 43.2705 7.34668H40.7305C40.7305 6.7959 40.9004 6.28613 41.2402 5.81738C41.5801 5.34863 42.0605 4.98242 42.6816 4.71875C43.3027 4.44922 44 4.31445 44.7734 4.31445C45.9453 4.31445 46.874 4.61035 47.5596 5.20215C48.251 5.78809 48.5967 6.61426 48.5967 7.68066V11.8027C48.6025 12.7051 48.7285 13.3877 48.9746 13.8506V14H46.4082ZM44.3076 12.2334C44.6826 12.2334 45.0283 12.1514 45.3447 11.9873C45.6611 11.8174 45.8955 11.5918 46.0479 11.3105V9.67578H45.0986C43.8271 9.67578 43.1504 10.1152 43.0684 10.9941L43.0596 11.1436C43.0596 11.46 43.1709 11.7207 43.3936 11.9258C43.6162 12.1309 43.9209 12.2334 44.3076 12.2334ZM55.6982 11.3721C55.6982 11.0615 55.543 10.8184 55.2324 10.6426C54.9277 10.4609 54.4355 10.2998 53.7559 10.1592C51.4941 9.68457 50.3633 8.72363 50.3633 7.27637C50.3633 6.43262 50.7119 5.72949 51.4092 5.16699C52.1123 4.59863 53.0293 4.31445 54.1602 4.31445C55.3672 4.31445 56.3311 4.59863 57.0518 5.16699C57.7783 5.73535 58.1416 6.47363 58.1416 7.38184H55.6016C55.6016 7.01855 55.4844 6.71973 55.25 6.48535C55.0156 6.24512 54.6494 6.125 54.1514 6.125C53.7236 6.125 53.3926 6.22168 53.1582 6.41504C52.9238 6.6084 52.8066 6.85449 52.8066 7.15332C52.8066 7.43457 52.9385 7.66309 53.2021 7.83887C53.4717 8.00879 53.9229 8.1582 54.5557 8.28711C55.1885 8.41016 55.7217 8.55078 56.1553 8.70898C57.4971 9.20117 58.168 10.0537 58.168 11.2666C58.168 12.1338 57.7959 12.8369 57.0518 13.376C56.3076 13.9092 55.3467 14.1758 54.1689 14.1758C53.3721 14.1758 52.6631 14.0352 52.042 13.7539C51.4268 13.4668 50.9434 13.0771 50.5918 12.585C50.2402 12.0869 50.0645 11.5508 50.0645 10.9766H52.4727C52.4961 11.4277 52.6631 11.7734 52.9736 12.0137C53.2842 12.2539 53.7002 12.374 54.2217 12.374C54.708 12.374 55.0742 12.2832 55.3203 12.1016C55.5723 11.9141 55.6982 11.6709 55.6982 11.3721ZM64.1885 14.1758C62.7939 14.1758 61.6572 13.748 60.7783 12.8926C59.9053 12.0371 59.4688 10.8975 59.4688 9.47363V9.22754C59.4688 8.27246 59.6533 7.41992 60.0225 6.66992C60.3916 5.91406 60.9131 5.33398 61.5869 4.92969C62.2666 4.51953 63.04 4.31445 63.9072 4.31445C65.208 4.31445 66.2305 4.72461 66.9746 5.54492C67.7246 6.36523 68.0996 7.52832 68.0996 9.03418V10.0713H62.0439C62.126 10.6924 62.3721 11.1904 62.7822 11.5654C63.1982 11.9404 63.7227 12.1279 64.3555 12.1279C65.334 12.1279 66.0986 11.7734 66.6494 11.0645L67.8975 12.4619C67.5166 13.001 67.001 13.4229 66.3506 13.7275C65.7002 14.0264 64.9795 14.1758 64.1885 14.1758ZM63.8984 6.37109C63.3945 6.37109 62.9844 6.54102 62.668 6.88086C62.3574 7.2207 62.1582 7.70703 62.0703 8.33984H65.6035V8.1377C65.5918 7.5752 65.4395 7.1416 65.1465 6.83691C64.8535 6.52637 64.4375 6.37109 63.8984 6.37109ZM79.1826 11.3721C79.1826 11.0615 79.0273 10.8184 78.7168 10.6426C78.4121 10.4609 77.9199 10.2998 77.2402 10.1592C74.9785 9.68457 73.8477 8.72363 73.8477 7.27637C73.8477 6.43262 74.1963 5.72949 74.8936 5.16699C75.5967 4.59863 76.5137 4.31445 77.6445 4.31445C78.8516 4.31445 79.8154 4.59863 80.5361 5.16699C81.2627 5.73535 81.626 6.47363 81.626 7.38184H79.0859C79.0859 7.01855 78.9688 6.71973 78.7344 6.48535C78.5 6.24512 78.1338 6.125 77.6357 6.125C77.208 6.125 76.877 6.22168 76.6426 6.41504C76.4082 6.6084 76.291 6.85449 76.291 7.15332C76.291 7.43457 76.4229 7.66309 76.6865 7.83887C76.9561 8.00879 77.4072 8.1582 78.04 8.28711C78.6729 8.41016 79.2061 8.55078 79.6396 8.70898C80.9814 9.20117 81.6523 10.0537 81.6523 11.2666C81.6523 12.1338 81.2803 12.8369 80.5361 13.376C79.792 13.9092 78.8311 14.1758 77.6533 14.1758C76.8564 14.1758 76.1475 14.0352 75.5264 13.7539C74.9111 13.4668 74.4277 13.0771 74.0762 12.585C73.7246 12.0869 73.5488 11.5508 73.5488 10.9766H75.957C75.9805 11.4277 76.1475 11.7734 76.458 12.0137C76.7686 12.2539 77.1846 12.374 77.7061 12.374C78.1924 12.374 78.5586 12.2832 78.8047 12.1016C79.0566 11.9141 79.1826 11.6709 79.1826 11.3721ZM87.6729 14.1758C86.2783 14.1758 85.1416 13.748 84.2627 12.8926C83.3896 12.0371 82.9531 10.8975 82.9531 9.47363V9.22754C82.9531 8.27246 83.1377 7.41992 83.5068 6.66992C83.876 5.91406 84.3975 5.33398 85.0713 4.92969C85.751 4.51953 86.5244 4.31445 87.3916 4.31445C88.6924 4.31445 89.7148 4.72461 90.459 5.54492C91.209 6.36523 91.584 7.52832 91.584 9.03418V10.0713H85.5283C85.6104 10.6924 85.8564 11.1904 86.2666 11.5654C86.6826 11.9404 87.207 12.1279 87.8398 12.1279C88.8184 12.1279 89.583 11.7734 90.1338 11.0645L91.3818 12.4619C91.001 13.001 90.4854 13.4229 89.835 13.7275C89.1846 14.0264 88.4639 14.1758 87.6729 14.1758ZM87.3828 6.37109C86.8789 6.37109 86.4688 6.54102 86.1523 6.88086C85.8418 7.2207 85.6426 7.70703 85.5547 8.33984H89.0879V8.1377C89.0762 7.5752 88.9238 7.1416 88.6309 6.83691C88.3379 6.52637 87.9219 6.37109 87.3828 6.37109ZM95.416 4.49023L95.4951 5.55371C96.1689 4.72754 97.0801 4.31445 98.2285 4.31445C99.4531 4.31445 100.294 4.79785 100.751 5.76465C101.419 4.79785 102.371 4.31445 103.607 4.31445C104.639 4.31445 105.406 4.61621 105.91 5.21973C106.414 5.81738 106.666 6.71973 106.666 7.92676V14H104.117V7.93555C104.117 7.39648 104.012 7.00391 103.801 6.75781C103.59 6.50586 103.218 6.37988 102.685 6.37988C101.923 6.37988 101.396 6.74316 101.103 7.46973L101.111 14H98.5713V7.94434C98.5713 7.39355 98.4629 6.99512 98.2461 6.74902C98.0293 6.50293 97.6602 6.37988 97.1387 6.37988C96.418 6.37988 95.8965 6.67871 95.5742 7.27637V14H93.0342V4.49023H95.416ZM111.307 14H108.758V4.49023H111.307V14ZM108.608 2.0293C108.608 1.64844 108.734 1.33496 108.986 1.08887C109.244 0.842773 109.593 0.719727 110.032 0.719727C110.466 0.719727 110.812 0.842773 111.069 1.08887C111.327 1.33496 111.456 1.64844 111.456 2.0293C111.456 2.41602 111.324 2.73242 111.061 2.97852C110.803 3.22461 110.46 3.34766 110.032 3.34766C109.604 3.34766 109.259 3.22461 108.995 2.97852C108.737 2.73242 108.608 2.41602 108.608 2.0293ZM115.745 4.49023L115.824 5.58887C116.504 4.73926 117.415 4.31445 118.558 4.31445C119.565 4.31445 120.315 4.61035 120.808 5.20215C121.3 5.79395 121.552 6.67871 121.563 7.85645V14H119.023V7.91797C119.023 7.37891 118.906 6.98926 118.672 6.74902C118.438 6.50293 118.048 6.37988 117.503 6.37988C116.788 6.37988 116.252 6.68457 115.895 7.29395V14H113.354V4.49023H115.745ZM129.008 14C128.891 13.7715 128.806 13.4873 128.753 13.1475C128.138 13.833 127.338 14.1758 126.354 14.1758C125.422 14.1758 124.648 13.9062 124.033 13.3672C123.424 12.8281 123.119 12.1484 123.119 11.3281C123.119 10.3203 123.491 9.54688 124.235 9.00781C124.985 8.46875 126.066 8.19629 127.479 8.19043H128.647V7.64551C128.647 7.20605 128.533 6.85449 128.305 6.59082C128.082 6.32715 127.728 6.19531 127.241 6.19531C126.813 6.19531 126.477 6.29785 126.23 6.50293C125.99 6.70801 125.87 6.98926 125.87 7.34668H123.33C123.33 6.7959 123.5 6.28613 123.84 5.81738C124.18 5.34863 124.66 4.98242 125.281 4.71875C125.902 4.44922 126.6 4.31445 127.373 4.31445C128.545 4.31445 129.474 4.61035 130.159 5.20215C130.851 5.78809 131.196 6.61426 131.196 7.68066V11.8027C131.202 12.7051 131.328 13.3877 131.574 13.8506V14H129.008ZM126.907 12.2334C127.282 12.2334 127.628 12.1514 127.944 11.9873C128.261 11.8174 128.495 11.5918 128.647 11.3105V9.67578H127.698C126.427 9.67578 125.75 10.1152 125.668 10.9941L125.659 11.1436C125.659 11.46 125.771 11.7207 125.993 11.9258C126.216 12.1309 126.521 12.2334 126.907 12.2334ZM138.491 6.87207C138.146 6.8252 137.841 6.80176 137.577 6.80176C136.616 6.80176 135.986 7.12695 135.688 7.77734V14H133.147V4.49023H135.547L135.617 5.62402C136.127 4.75098 136.833 4.31445 137.735 4.31445C138.017 4.31445 138.28 4.35254 138.526 4.42871L138.491 6.87207Z" fill="#F2F2F2"/>
</svg>
